<?xml version="1.0" standalone="no"?>
<!DOCTYPE svg PUBLIC "-//W3C//DTD SVG 20010904//EN"
 "http://www.w3.org/TR/2001/REC-SVG-20010904/DTD/svg10.dtd">
<svg version="1.0" xmlns="http://www.w3.org/2000/svg"
 width="512.000000pt" height="512.000000pt" viewBox="0 0 512.000000 512.000000"
 preserveAspectRatio="xMidYMid meet">
<metadata>
Created by potrace 1.11, written by Peter Selinger 2001-2013
</metadata>
<g transform="translate(0.000000,512.000000) scale(0.100000,-0.100000)"
fill="#000000" stroke="none">
<path d="M672 5009 c-67 -34 -94 -83 -100 -179 l-4 -78 -117 -4 c-105 -4 -123
-7 -184 -36 -127 -58 -227 -185 -256 -320 -8 -38 -11 -477 -11 -1508 l0 -1455
25 -24 c31 -32 69 -32 100 0 l25 24 0 1106 0 1105 2215 0 2215 0 0 -425 0
-426 25 -24 c31 -32 69 -32 100 0 l25 24 0 783 c0 676 -2 792 -16 843 -32 124
-122 233 -243 293 l-75 37 -157 3 -157 4 -4 78 c-6 98 -34 146 -103 180 -41
20 -58 22 -164 19 -116 -4 -120 -5 -158 -35 -55 -45 -72 -80 -79 -167 l-7 -77
-243 0 -244 0 -1 63 c-1 76 -15 117 -54 158 -45 48 -81 59 -200 59 -122 0
-156 -11 -202 -63 -37 -42 -53 -91 -53 -164 l0 -53 -245 0 -245 0 0 53 c0 75
-16 123 -57 168 -46 51 -86 62 -219 57 -98 -3 -115 -6 -147 -28 -54 -36 -87
-108 -87 -187 l0 -63 -244 0 -243 0 -7 77 c-7 87 -24 122 -79 167 -38 30 -41
31 -160 34 -109 3 -127 1 -165 -19z m246 -338 c2 -157 -1 -206 -10 -213 -21
-13 -162 -10 -176 4 -17 17 -17 389 0 406 9 9 40 12 98 10 l85 -3 3 -204z
m1000 0 c2 -157 -1 -206 -10 -213 -7 -4 -48 -8 -90 -8 -66 0 -79 3 -88 19 -14
26 -13 366 1 392 9 18 19 19 97 17 l87 -3 3 -204z m1002 190 c6 -12 10 -94 10
-196 0 -102 -4 -184 -10 -196 -9 -16 -22 -19 -85 -19 -40 0 -80 3 -89 6 -14 5
-16 33 -16 208 0 112 3 206 7 209 3 4 44 7 89 7 72 0 85 -3 94 -19z m998 7
c17 -17 17 -389 0 -406 -12 -12 -143 -17 -172 -6 -14 5 -16 33 -16 208 0 112
3 206 7 209 12 12 168 8 181 -5z"/>
<path d="M531 3394 c-26 -33 -27 -65 -2 -95 19 -23 25 -24 180 -27 160 -3 161
-3 186 22 32 32 33 75 2 104 -22 21 -33 22 -184 22 l-162 0 -20 -26z"/>
<path d="M1331 3394 c-24 -30 -26 -43 -10 -77 18 -40 50 -47 203 -47 130 0
146 2 170 21 33 26 36 79 6 109 -18 18 -33 20 -184 20 l-165 0 -20 -26z"/>
<path d="M2147 3409 c-46 -27 -41 -105 9 -128 15 -6 83 -11 168 -11 130 0 146
2 170 21 33 26 36 79 6 109 -18 18 -33 20 -177 20 -92 0 -166 -5 -176 -11z"/>
<path d="M2939 3402 c-33 -27 -30 -78 5 -109 26 -22 34 -23 176 -23 140 0 150
1 174 23 36 32 39 74 6 107 -18 18 -33 20 -179 20 -139 0 -162 -2 -182 -18z"/>
<path d="M3740 3400 c-30 -30 -27 -83 6 -109 24 -19 40 -21 176 -21 l150 0 30
30 c24 25 29 36 24 58 -14 56 -33 62 -207 62 -146 0 -161 -2 -179 -20z"/>
<path d="M561 3039 c-54 -21 -65 -71 -27 -116 24 -28 25 -28 163 -31 159 -4
207 7 219 52 11 44 -4 76 -41 92 -40 16 -275 19 -314 3z"/>
<path d="M1364 3041 c-26 -11 -54 -49 -54 -73 0 -9 11 -30 24 -45 24 -28 26
-28 151 -32 145 -4 188 2 216 30 24 24 24 70 0 100 -18 23 -25 24 -168 26 -81
2 -158 -1 -169 -6z"/>
<path d="M2164 3040 c-26 -10 -54 -48 -54 -72 0 -9 11 -30 24 -45 l24 -28 160
0 c143 0 162 2 181 19 29 26 29 86 0 112 -18 17 -39 19 -168 21 -80 1 -156 -2
-167 -7z"/>
<path d="M2965 3041 c-51 -22 -65 -86 -26 -124 20 -21 30 -22 180 -22 142 0
161 2 180 19 29 26 29 86 0 112 -18 17 -39 19 -168 21 -80 1 -155 -1 -166 -6z"/>
<path d="M3770 3043 c-53 -20 -69 -93 -29 -129 19 -17 38 -19 180 -19 150 0
160 1 180 22 29 29 29 77 0 106 -20 20 -32 22 -169 24 -81 1 -154 -1 -162 -4z"/>
<path d="M2975 2591 c-83 -21 -117 -51 -553 -485 l-442 -440 -108 106 c-127
128 -172 152 -277 152 -163 1 -289 -125 -289 -289 0 -121 13 -140 287 -412
230 -228 245 -241 301 -258 73 -22 149 -16 220 19 40 20 170 144 617 593 629
631 599 594 599 732 -1 111 -59 204 -162 257 -52 26 -143 38 -193 25z"/>
<path d="M4605 2525 l-25 -24 0 -262 c0 -245 -1 -261 -17 -254 -73 32 -221 76
-283 86 -117 18 -316 6 -420 -24 -174 -52 -297 -123 -424 -246 -98 -95 -154
-173 -211 -293 -107 -227 -124 -493 -44 -731 16 -49 29 -90 29 -93 0 -2 -463
-4 -1028 -4 -984 0 -1030 -1 -1045 -18 -24 -27 -22 -85 4 -108 20 -18 55 -19
1092 -22 943 -2 1072 -4 1080 -17 51 -92 223 -240 357 -309 160 -82 283 -110
465 -109 158 1 282 30 420 96 507 245 711 859 450 1354 -54 103 -112 178 -204
266 l-71 69 0 309 0 310 -25 24 c-13 14 -36 25 -50 25 -14 0 -37 -11 -50 -25z
m-275 -621 c293 -74 532 -313 611 -610 30 -111 30 -297 0 -409 -101 -381 -427
-635 -816 -635 -389 0 -715 254 -816 635 -30 112 -30 298 0 409 86 321 339
558 666 622 87 17 265 11 355 -12z"/>
<path d="M3995 1816 c-160 -31 -275 -94 -397 -216 -72 -72 -94 -103 -132 -181
-57 -119 -77 -203 -77 -332 1 -289 155 -535 416 -662 123 -60 219 -79 354 -72
277 14 510 168 631 415 48 99 70 199 70 321 0 133 -18 210 -77 331 -39 80 -59
108 -137 186 -77 76 -106 98 -186 137 -52 26 -122 54 -155 62 -86 22 -227 27
-310 11z m57 -221 c-3 -68 -2 -76 22 -100 14 -14 37 -25 51 -25 14 0 37 11 51
25 24 24 25 32 22 100 -2 41 1 75 6 75 32 0 142 -37 195 -66 85 -47 132 -87
188 -159 53 -69 88 -143 107 -226 l14 -59 -79 0 c-66 0 -82 -3 -99 -20 -25
-25 -26 -71 -1 -101 17 -22 27 -24 98 -24 l79 0 -7 -40 c-29 -154 -140 -312
-276 -392 -51 -30 -169 -72 -200 -73 -22 0 -23 4 -23 73 -1 77 -11 100 -51
116 -30 11 -83 -8 -93 -34 -3 -9 -6 -48 -6 -86 0 -65 -1 -69 -22 -69 -32 1
-150 43 -201 73 -136 80 -247 238 -276 392 l-7 40 79 0 c71 0 81 2 98 24 25
30 24 76 -1 101 -17 17 -33 20 -99 20 l-79 0 14 63 c48 205 204 368 409 428
94 27 90 30 87 -56z"/>
<path d="M4094 1305 c-40 -17 -44 -29 -44 -145 0 -139 5 -144 148 -148 103 -4
110 -2 137 20 21 19 28 33 27 59 -1 49 -30 69 -103 69 l-59 0 0 53 c-1 80 -44
118 -106 92z"/>
<path d="M24 1165 l-25 -25 3 -239 3 -238 28 -40 c15 -22 46 -50 70 -64 l42
-24 366 0 c347 0 368 1 388 19 25 23 28 72 5 104 l-15 22 -347 0 c-298 0 -351
2 -370 16 -22 15 -22 19 -22 230 0 215 0 215 -25 239 -31 32 -69 32 -101 0z"/>
</g>
</svg>
