<?xml version="1.0" standalone="no"?>
<!DOCTYPE svg PUBLIC "-//W3C//DTD SVG 20010904//EN"
 "http://www.w3.org/TR/2001/REC-SVG-20010904/DTD/svg10.dtd">
<svg version="1.0" xmlns="http://www.w3.org/2000/svg"
 width="512.000000pt" height="512.000000pt" viewBox="0 0 512.000000 512.000000"
 preserveAspectRatio="xMidYMid meet">
<metadata>
Created by potrace 1.11, written by Peter Selinger 2001-2013
</metadata>
<g transform="translate(0.000000,512.000000) scale(0.100000,-0.100000)"
fill="#000000" stroke="none">
<path d="M484 4326 c-17 -8 -35 -22 -39 -32 -5 -11 -10 -548 -10 -1194 l-2
-1175 -212 -510 c-117 -280 -215 -524 -218 -541 -4 -23 1 -38 20 -60 l25 -29
2511 0 2510 0 22 21 c12 12 22 36 24 54 1 21 -60 218 -170 549 l-173 516 0
1180 0 1179 -31 28 -31 28 -2098 0 c-1737 -1 -2102 -3 -2128 -14z"/>
</g>
</svg>
